<?xml version="1.0" encoding="UTF-8"?>
<svg version="1.1" xmlns="http://www.w3.org/2000/svg" width="500" height="500">
<path d="M0 0 C165 0 330 0 500 0 C500 165 500 330 500 500 C335 500 170 500 0 500 C0 335 0 170 0 0 Z " fill="#FDFEFE" transform="translate(0,0)"/>
<path d="M0 0 C0 3 0 3 -1.3125 5.875 C-8.55733749 22.43462854 -6.73020955 39.86543932 -3 57 C-2.70996094 58.39025391 -2.70996094 58.39025391 -2.4140625 59.80859375 C6.17489465 95.55873356 29.41063379 127.82927849 53.75390625 154.53515625 C55.25179512 156.17892647 56.73883167 157.83265156 58.21484375 159.49609375 C65.98359204 168.24788225 73.97957829 176.42228126 83.1640625 183.69921875 C85.41976643 185.52925954 87.58706349 187.40074414 89.75390625 189.33203125 C96.40303126 195.18016063 103.63624155 200.25368422 110.82666016 205.40722656 C112.59619584 206.70406444 114.31287747 208.07277926 116.01171875 209.4609375 C122.60816018 214.53512321 128.15053618 214.39253411 136.14770508 214.09301758 C142.32439575 213.87751572 146.84093184 214.3102867 152 218 C152.71414062 218.50917969 153.42828125 219.01835937 154.1640625 219.54296875 C160.03760458 224.20976491 163.50693805 229.63146278 165 237 C165.88648948 246.09741665 164.27137741 253.99762555 158.6875 261.375 C151.34258967 268.54909846 143.36804456 270.39862242 133.38549805 270.36791992 C127.75673953 270.24008997 123.56121942 269.48063128 119 266 C117.9275 265.236875 116.855 264.47375 115.75 263.6875 C112.29095629 260.30707092 109.45513391 256.74614504 108.65234375 251.90234375 C108.03812662 248.52116788 107.27533787 246.04137758 104.53076172 243.80029297 C101.235067 241.56499141 97.78783748 239.60072781 94.34375 237.60546875 C88.303425 234.08150038 82.9803563 229.72046964 77.58447266 225.29638672 C76.10116981 224.0827753 74.60379142 222.88642474 73.10546875 221.69140625 C55.34950488 207.44091165 37.73860518 191.19738171 24 173 C23.20980469 172.00355469 22.41960937 171.00710938 21.60546875 169.98046875 C-5.53347367 135.67650983 -26.80990996 93.40288679 -22.7890625 48.65234375 C-20.55928198 30.03705483 -12.06913493 14.10540374 0 0 Z " fill="#0F48A2" transform="translate(71,90)"/>
<path d="M0 0 C1.48187672 2.96375344 0.39009959 4.82201757 -0.4375 8 C-6.63098711 35.72863952 2.72219216 63.76450654 16 88 C16.47824219 88.94230469 16.95648438 89.88460937 17.44921875 90.85546875 C26.25397564 107.93518341 38.70245829 123.51483322 51.734375 137.55078125 C53.70757517 139.68387867 55.61294703 141.85358987 57.5 144.0625 C64.09241799 151.63214701 71.35019888 158.51575527 79 165 C79.93199219 165.80953125 80.86398438 166.6190625 81.82421875 167.453125 C101.5216728 184.47821576 123.06802226 199.06710285 146 211.375 C146.59876953 211.69678223 147.19753906 212.01856445 147.81445312 212.35009766 C154.87826316 216.44269515 154.87826316 216.44269515 162.625 217.8125 C165.01762316 217.03247556 165.01762316 217.03247556 167.3203125 215.97265625 C173.4208849 213.75830854 179.94309907 214.23043004 185.875 216.75 C193.94045081 220.89753609 198.13737858 226.41213575 201 235 C201.83311563 243.45407502 200.70747406 249.20093544 195.52734375 255.90625 C190.50493458 261.51045125 184.67463138 264.29212725 177.265625 265.4140625 C169.62729205 265.82402952 163.11923009 263.68458711 157.37109375 258.54296875 C155.29591021 256.19522379 153.98901888 253.97107413 152.87890625 251.046875 C150.27979489 246.83209982 147.37399439 245.92685306 142.875 244.1875 C141.23368171 243.50346622 139.59439677 242.81453596 137.95703125 242.12109375 C137.1263916 241.77159668 136.29575195 241.42209961 135.43994141 241.06201172 C115.32795123 232.30804361 97.06369583 219.63011966 80 206 C79.18813232 205.35587158 79.18813232 205.35587158 78.35986328 204.69873047 C60.88364702 190.80014453 43.31120297 175.01792667 30 157 C29.52578613 156.36980957 29.05157227 155.73961914 28.56298828 155.09033203 C1.32697802 118.82303804 -18.19836266 78.40185815 -12.3125 31.9375 C-10.1721163 20.5620342 -5.41212615 10.15471093 0 0 Z " fill="#0F49A2" transform="translate(36,157)"/>
<path d="M0 0 C0.33 0.66 0.66 1.32 1 2 C0.01873444 4.00925805 -0.9849911 6.00757511 -2 8 C-4.49061679 14.62074031 -4.33180725 21.11260558 -4.3125 28.125 C-4.32861328 29.27226563 -4.34472656 30.41953125 -4.36132812 31.6015625 C-4.3659338 39.78124941 -3.18995004 47.12944045 -1 55 C-0.77562256 55.80791992 -0.55124512 56.61583984 -0.32006836 57.44824219 C2.948358 68.58987293 7.48881213 78.80783526 13 89 C13.34933594 89.66241699 13.69867188 90.32483398 14.05859375 91.00732422 C19.16016944 100.67088586 24.94038765 109.53266986 31.60595703 118.18847656 C32.96736836 119.95759602 34.31057972 121.73939382 35.65234375 123.5234375 C42.5263204 132.56580907 50.10557168 140.84337091 58 149 C58.56541504 149.5873291 59.13083008 150.1746582 59.71337891 150.77978516 C65.95542694 157.23938933 72.29130812 163.36337712 79.37109375 168.91796875 C81.17649259 170.34780171 82.93844149 171.83371087 84.66015625 173.36328125 C89.59084223 177.88941161 89.59084223 177.88941161 95.9375 179.0625 C96.948125 178.711875 97.95875 178.36125 99 178 C106.75844068 175.41385311 115.0235849 176.61472663 122.4609375 179.6796875 C130.42471278 183.82085064 135.88252423 190.33538075 138.609375 198.91796875 C140.55678053 209.29764022 138.03595653 217.15297262 133.3125 226.25 C128.30896627 232.20014822 121.76302822 236.14198109 114 237 C103.55738445 237.7867724 95.09513794 236.45616624 86.7890625 229.8046875 C81.79648426 224.76850596 78.18329283 217.21573511 77.875 210.125 C77.91625 209.42375 77.9575 208.7225 78 208 C77.4740625 207.77183594 76.948125 207.54367187 76.40625 207.30859375 C73.17872185 205.55336334 70.37065887 203.33653064 67.5 201.0625 C66.87907471 200.57088379 66.25814941 200.07926758 65.6184082 199.57275391 C49.77136364 186.88945065 34.24750314 172.21853658 22 156 C21.49436523 155.34902344 20.98873047 154.69804687 20.46777344 154.02734375 C-4.8205938 121.43668719 -24.75990295 82.07531192 -19.72753906 39.70605469 C-17.23868512 25.0761059 -9.12325003 11.45259046 0 0 Z " fill="#1049A2" transform="translate(120,57)"/>
<path d="M0 0 C2.01840664 1.78502837 4.00236979 3.58645239 5.9375 5.4609375 C1.95521546 5.4609375 0.09111246 3.53135398 -2.9375 1.2109375 C-30.17961585 -18.86792728 -64.40981756 -34.63433713 -97.84130859 -40.16552734 C-100.13797797 -40.55175554 -102.42085946 -40.9897093 -104.70703125 -41.43359375 C-121.17843675 -44.49590241 -142.12616572 -47.04380379 -157.40625 -38.68359375 C-160.49541939 -36.54886113 -162.40460057 -33.85486136 -164.0625 -30.5390625 C-165.81517046 -18.07161282 -161.93914646 -8.65889912 -154.71679688 1.3203125 C-151.69807036 5.22640025 -148.43493476 8.85856401 -145.0625 12.4609375 C-144.47984375 13.11191406 -143.8971875 13.76289062 -143.296875 14.43359375 C-133.27784168 25.13574297 -120.22389111 33.41819539 -108.0625 41.4609375 C-107.0415625 42.14027344 -106.020625 42.81960937 -104.96875 43.51953125 C-100.82277792 46.53004025 -100.82277792 46.53004025 -96.015625 47.2265625 C-94.05197396 46.45681129 -92.3552769 45.56919958 -90.5625 44.4609375 C-85.07412326 41.06812279 -79.39348124 40.79893504 -73.0625 41.4609375 C-64.78949118 43.84607184 -57.52902674 48.88481777 -52.5625 55.8984375 C-48.94171118 62.4753772 -49.02422126 69.16152336 -50.0625 76.4609375 C-52.60116321 84.8340723 -58.21273351 91.35288091 -65.625 95.8984375 C-72.21336185 98.8408127 -80.0684472 98.60209544 -86.90625 96.6484375 C-94.65091872 93.20636251 -100.8903325 87.05672486 -104.0625 79.1484375 C-105.0625 75.4609375 -105.0625 75.4609375 -105.0625 71.4609375 C-105.70316406 71.2340625 -106.34382813 71.0071875 -107.00390625 70.7734375 C-119.92466029 65.22889937 -131.90197605 56.93440537 -143.0625 48.4609375 C-143.94035156 47.79578125 -144.81820312 47.130625 -145.72265625 46.4453125 C-152.50714489 41.15534671 -158.80438373 35.35293268 -165.0625 29.4609375 C-165.83464844 28.75453125 -166.60679687 28.048125 -167.40234375 27.3203125 C-182.76365085 12.76457123 -194.54377268 -5.95419368 -195.4375 -27.5390625 C-195.30030978 -35.23151414 -192.62937649 -42.11868276 -187.0625 -47.5390625 C-141.29472845 -84.05987612 -36.31601699 -30.10894266 0 0 Z " fill="#1049A2" transform="translate(394.0625,86.5390625)"/>
<path d="M0 0 C0.66 0.33 1.32 0.66 2 1 C1.50371094 1.38929687 1.00742188 1.77859375 0.49609375 2.1796875 C-9.24051228 10.19806894 -16.84231416 21.24898268 -18.22485352 34.08813477 C-19.8542036 66.19886495 -3.547208 93.93692201 17.33789062 117.19287109 C26.89734376 127.58638933 36.84992675 137.36477073 48.25878906 145.71191406 C50.13228843 147.09786228 51.96771457 148.52699774 53.8046875 149.9609375 C55.05618767 150.91291143 56.30875985 151.86347803 57.5625 152.8125 C58.13444092 153.26423584 58.70638184 153.71597168 59.2956543 154.18139648 C61.10311392 155.57776384 61.10311392 155.57776384 64 157 C66.72947831 156.52698483 66.72947831 156.52698483 69 155 C69.6084375 154.65839844 70.216875 154.31679687 70.84375 153.96484375 C71.3903125 153.62582031 71.936875 153.28679687 72.5 152.9375 C79.25034426 149.03246214 86.59582966 149.1914993 94 151.125 C103.19827771 154.1581744 109.5764719 160.47591814 114.03515625 168.97265625 C117.155129 176.27194133 116.79039688 183.43389061 114.0390625 190.80078125 C110.47184863 198.35093692 105.01817974 203.95821913 97.2734375 207.109375 C90.13979144 209.05027154 80.1660786 209.56326825 73.375 206.3125 C71.59375 205.18359375 71.59375 205.18359375 70 204 C68.96875 203.29875 67.9375 202.5975 66.875 201.875 C63.57040739 198.99131756 61.65135099 195.32424532 59.58984375 191.5 C56.20479652 186.1770756 51.43733363 182.71609703 46.3125 179.1875 C40.35495433 175.00140976 34.59710405 170.66286314 29 166 C28.46906738 165.55930176 27.93813477 165.11860352 27.39111328 164.66455078 C-3.08964768 139.27394793 -34.35553002 104.11045701 -39 63 C-40.01151477 47.18057234 -37.13075293 32.94876318 -26.68554688 20.42382812 C-20.30527481 13.25370119 -13.36842601 7.74607415 -5 3 C-4.11183594 2.42378906 -3.22367188 1.84757812 -2.30859375 1.25390625 C-1.54675781 0.84011719 -0.78492188 0.42632813 0 0 Z " fill="#1049A2" transform="translate(185,31)"/>
<path d="M0 0 C1.79708021 4.15774178 -0.00385184 7.62030915 -1.5625 11.5625 C-1.83843994 12.27414307 -2.11437988 12.98578613 -2.39868164 13.71899414 C-6.28681264 23.51169235 -11.24671739 31.91402969 -18 40 C-18.76376953 40.98226562 -18.76376953 40.98226562 -19.54296875 41.984375 C-40.01042735 67.25284241 -76.13160579 77.15341818 -107.09765625 80.4609375 C-126.65846414 82.20184653 -146.52490909 81.75254647 -165.95654297 78.97998047 C-172.75712991 78.01358717 -177.89603367 78.06966351 -184.375 80.5625 C-191.63913676 82.97985 -196.14291375 82.65856736 -203.0625 79.5 C-210.20517443 75.65810694 -216.06055187 70.39887612 -218.55859375 62.46484375 C-219.8217674 55.41119267 -220.7469974 47.00080861 -217.0625 40.5625 C-211.14144198 32.90192211 -204.33896071 27.20862341 -194.69921875 25.62109375 C-186.54411482 25.00978612 -179.18728748 28.40730734 -173.046875 33.67578125 C-170.38102259 36.60417973 -168.82861446 39.39362654 -167.43359375 43.078125 C-166.21056258 45.54524466 -165.52504291 46.73386436 -163.04931641 47.98876953 C-160.5545415 48.63780372 -158.11881531 49.04176936 -155.5625 49.375 C-154.15967773 49.59494629 -154.15967773 49.59494629 -152.72851562 49.81933594 C-149.82321505 50.2567873 -146.91522609 50.63516182 -144 51 C-143.15163574 51.11569336 -142.30327148 51.23138672 -141.42919922 51.35058594 C-102.73572712 56.51789329 -55.93610548 54.90486516 -23.15991211 31.00439453 C-12.57764335 22.82633155 -4.27054842 12.81164525 0 0 Z " fill="#1049A2" transform="translate(465,301)"/>
<path d="M0 0 C1.34979834 4.04939502 -0.02454604 6.63086427 -1.5 10.4375 C-1.7769873 11.15397705 -2.05397461 11.8704541 -2.33935547 12.60864258 C-11.620124 35.9093508 -29.37346462 50.98897895 -52 61 C-61.27855199 64.66876529 -70.96196088 67.14760259 -80.6875 69.3125 C-81.38601074 69.47210205 -82.08452148 69.6317041 -82.80419922 69.79614258 C-95.65169014 72.44431081 -109.23654439 72.2528631 -122.3125 72.3125 C-123.39878693 72.32041565 -123.39878693 72.32041565 -124.50701904 72.32849121 C-136.07279599 72.38223994 -147.05800148 71.40950025 -158.4230957 69.0715332 C-164.38787487 67.9361716 -168.04708246 67.63192945 -173.27685547 70.96582031 C-178.52085053 74.11310893 -185.52495037 73.63341206 -191.3359375 72.57421875 C-199.8327926 70.14441633 -206.13921014 65.20461582 -210.5625 57.5625 C-214.10683952 49.71361443 -214.67504342 40.67653603 -212.2265625 32.37890625 C-211.29844916 30.41501842 -210.28087349 28.74948575 -209 27 C-208.1646875 25.6696875 -208.1646875 25.6696875 -207.3125 24.3125 C-200.93207408 17.93207408 -192.59437494 15.16697167 -183.75 14.5625 C-176.12395616 14.77360156 -168.54578462 18.12374014 -163 23.3125 C-158.38584491 28.48935693 -155.69341425 34.06585748 -155 41 C-154.46375 41.03738281 -153.9275 41.07476562 -153.375 41.11328125 C-147.96850039 41.56678697 -142.69612257 42.39429434 -137.375 43.4375 C-114.67801894 47.75947495 -90.85068705 49.27387983 -68 45 C-67.29407715 44.87109375 -66.5881543 44.7421875 -65.86083984 44.609375 C-43.35152392 40.39892924 -20.80833977 32.36865009 -6.90625 13.09765625 C-4.12600303 8.85322184 -1.77796523 4.76118573 0 0 Z " fill="#1049A2" transform="translate(476,248)"/>
<path d="M0 0 C5.09328729 8.73335459 3.3325699 24.65756809 0.8671875 34.11328125 C-1.53178986 41.72703358 -4.94795521 48.79249971 -10 55 C-10.56074219 55.74378906 -11.12148438 56.48757812 -11.69921875 57.25390625 C-24.12767752 72.6526885 -46.99688946 80.0964996 -66 83 C-73.48421782 83.75026822 -80.93743634 84.06128256 -88.453125 84.10546875 C-89.91146109 84.12017178 -91.36979445 84.13514774 -92.828125 84.15039062 C-95.04869061 84.17325517 -97.26761162 84.18740203 -99.48828125 84.17504883 C-108.12802391 84.14005863 -114.6132682 84.4864594 -121.91601562 89.65307617 C-127.18404086 93.05791394 -134.45551637 91.61719864 -140.35546875 90.58984375 C-147.45809758 88.44913127 -153.76016202 82.53726385 -157.5 76.25 C-160.69326311 69.33126325 -161.3924423 61.60026498 -159.1640625 54.23828125 C-155.41371446 46.02023671 -149.31491349 40.46792733 -141 37 C-130.26058014 35.68858569 -122.57000306 37.25095948 -113.75 43.1875 C-110.27318513 46.74333339 -108.18562521 50.56779589 -106 55 C-105.67 55.66 -105.34 56.32 -105 57 C-56.64141368 58.31578898 -56.64141368 58.31578898 -15 36 C-4.85906163 25.67189666 -1.40317979 14.15745581 0 0 Z " fill="#1049A2" transform="translate(466,173)"/>
<path d="M0 0 C3.5550547 3.50381067 6.96306547 7.11127928 10.3125 10.8125 C17.20434062 18.35592863 24.18805846 25.33236154 32.1796875 31.734375 C33.95355759 33.15936759 35.71149698 34.60465878 37.4453125 36.078125 C52.41143995 48.74538021 69.01346367 59.28005181 86 69 C86.86318848 69.49741699 87.72637695 69.99483398 88.61572266 70.50732422 C108.81379885 82.07615792 129.9803762 91.46579063 152 99 C153.0725 99.37125 154.145 99.7425 155.25 100.125 C160.584898 101.95380079 160.584898 101.95380079 166 101 C167.70250393 99.71274093 169.37064759 98.37868281 171 97 C175.8766002 93.7489332 181.29443989 94.54271097 187 95 C190.5 96.25 190.5 96.25 193 98 C193.886875 98.61875 194.77375 99.2375 195.6875 99.875 C199.81267174 103.66569835 201.60886056 107.58875113 202.23828125 113.078125 C202.43817789 118.92773201 201.44798115 123.21113729 198 128 C193.25791195 133.06796614 188.70254082 135.99127127 181.6875 136.375 C176.70514433 136.23430225 173.05256932 134.86925966 169 132 C168.04744762 130.85977369 167.13088928 129.68864316 166.25 128.4921875 C163.09674435 124.72172389 159.91986975 123.62829489 155.1875 122.6875 C111.77846946 112.28281685 71.99110922 86.42774279 40 56 C39.48260254 55.51128418 38.96520508 55.02256836 38.43212891 54.51904297 C22.76474742 39.637767 9.21173768 21.61307062 0 2 C0 1.34 0 0.68 0 0 Z " fill="#1049A2" transform="translate(54,334)"/>
<path d="M0 0 C0 6.19186323 -5.43503924 11.62841504 -9.5 16 C-33.55373126 38.95622261 -71.22443368 45.30370285 -103.23046875 46.19921875 C-104.78362793 46.24622925 -104.78362793 46.24622925 -106.36816406 46.29418945 C-108.36580273 46.34678398 -110.36402174 46.38141914 -112.36230469 46.39526367 C-118.26569118 46.53579562 -121.11810184 47.47648311 -126 51 C-133.39940161 52.25781153 -140.70723352 51.84959465 -147.09375 47.703125 C-151.49770132 43.76844719 -155.68332309 38.01845205 -156.30859375 32.05859375 C-156.5679598 24.77276568 -156.3790403 19.68064488 -151.7890625 13.83984375 C-146.49256986 8.39301398 -141.50875744 5.86027068 -133.875 5.5625 C-127.04924531 5.63083347 -122.88814632 7.2415392 -118 12 C-116.45383252 14.07035597 -115.04966293 16.1142322 -113.77734375 18.36328125 C-108.48416337 23.23766054 -97.00088765 21.15032163 -90.17626953 21.13037109 C-88.03280328 21.12508096 -85.88955304 21.13030268 -83.74609375 21.13671875 C-70.70503576 21.1450608 -57.60346789 20.96861116 -44.8125 18.1875 C-43.96719727 18.00864258 -43.12189453 17.82978516 -42.25097656 17.64550781 C-26.91151076 14.31542157 -12.94381728 8.96264319 0 0 Z " fill="#114AA2" transform="translate(413,383)"/>
<path d="M0 0 C8.75318312 7.81324399 14.03367006 21.32749461 15.30859375 32.76953125 C15.65670422 40.31192475 14.1180272 46.95051152 9.45703125 53.00390625 C7.73170658 54.83188182 5.95821453 56.42535326 4 58 C3.42636719 58.46148437 2.85273438 58.92296875 2.26171875 59.3984375 C-4.9545602 64.49773526 -14.3146311 66.9361437 -23.0625 67.375 C-27.17878285 67.60824107 -27.17878285 67.60824107 -29.5625 70.8125 C-29.94921875 71.34746094 -30.3359375 71.88242188 -30.734375 72.43359375 C-34.18798974 76.70797495 -38.40072402 77.82043806 -43.72265625 78.41796875 C-51.86838709 78.84075755 -59.46403094 78.38256276 -66 73 C-71.23475674 66.95906923 -73.40393845 61.43445748 -73.2734375 53.5 C-72.48061691 46.25135461 -69.30343261 40.2613438 -63.91015625 35.40625 C-57.92980853 31.00354002 -51.28896642 29.9926739 -44 31 C-36.40790436 33.19575315 -30.01446228 37.49093667 -26.0625 44.375 C-25.711875 45.24125 -25.36125 46.1075 -25 47 C-15.63800929 46.30651921 -7.58534983 43.54190237 -0.6953125 36.97265625 C4.197119 31.27985002 5.66306548 25.26258233 5.40234375 17.84765625 C4.82896225 13.78945125 3.52563152 10.18961935 1.97265625 6.41015625 C1.11149852 4.27628349 0.49429328 2.24253055 0 0 Z " fill="#114AA2" transform="translate(426,121)"/>
<path d="M0 0 C38.67282813 -2.16183511 79.05876128 15.26642325 107.68554688 40.48486328 C114.33354612 46.50640124 114.33354612 46.50640124 117 50 C117.11962891 52.65673828 117.11962891 52.65673828 117 55 C108.51504916 55.34019181 100.92653602 54.50460241 92.6875 52.5 C91.56593506 52.23227783 90.44437012 51.96455566 89.28881836 51.6887207 C58.36646708 44.05118071 28.99869338 30.79390565 4.8125 9.8125 C3.89082031 9.01457031 2.96914063 8.21664062 2.01953125 7.39453125 C0 5 0 5 -0.30078125 2.19921875 C-0.20152344 1.47347656 -0.10226562 0.74773437 0 0 Z " fill="#0F48A1" transform="translate(272,71)"/>
<path d="M0 0 C5.79597913 2.46507372 10.16159155 6.3231831 13 12 C13.68567286 19.40751496 13.70148901 25.06127704 9 31 C3.61528565 35.17590093 -0.669642 36.43365486 -7.36328125 36.3359375 C-12.50612541 35.68070106 -16.16447345 33.29181564 -19.3828125 29.2734375 C-22.56264787 23.86994103 -22.92844179 18.12396452 -22 12 C-17.64326448 3.12516839 -9.73228395 -1.56611466 0 0 Z " fill="#8EC8F7" transform="translate(233,246)"/>
<path d="M0 0 C4.20068573 2.0322972 6.36188186 5.01585438 8.15234375 9.16015625 C9.65985247 14.24799818 9.40844811 18.64208741 7.68359375 23.625 C4.83379905 27.8046989 1.70266404 30.74364324 -3.19140625 32.375 C-8.71293436 33.14977926 -12.98528242 33.0435332 -17.62890625 29.75 C-21.56229592 26.33311605 -23.80656426 23.3124648 -24.5 18.01953125 C-24.80467912 11.91671614 -23.89330084 8.24591393 -20.19140625 3.375 C-14.70696517 -1.97233006 -7.12228396 -2.03131093 0 0 Z " fill="#8EC8F8" transform="translate(278.19140625,194.625)"/>
<path d="M0 0 C4.47870656 2.15937638 7.18198188 4.92952939 10 9 C11.44865941 13.34597823 11.88893053 17.60375247 10.28125 21.9375 C7.60982527 26.9356495 4.37657513 30.20780829 -1 32 C-5.96860315 32.52166057 -9.85518979 32.5724051 -14.375 30.3125 C-19.25547662 26.0130325 -21.81698479 22.79098196 -22.25 16.1875 C-22.13555996 10.49670882 -19.95468393 6.6880603 -16.0625 2.625 C-11.26083947 -1.25719362 -5.86845826 -0.95495079 0 0 Z " fill="#8DC7F7" transform="translate(297,276)"/>
<path d="M0 0 C4.47797368 1.99909539 7.05691071 4.60116513 9.3046875 9.01171875 C10.83225 13.37986095 10.79540078 17.60438464 9.33984375 21.98828125 C7.45741251 25.793889 5.00108661 28.41015408 1.125 30.33984375 C-4.55859499 32.1055194 -10.05133635 31.88575621 -15.4375 29.4375 C-19.80497676 25.28307089 -22.17957546 21.56510093 -22.5625 15.5625 C-22.32288707 10.5563012 -20.36794548 6.67563432 -17 3 C-11.63105919 -0.95845636 -6.4365607 -0.76854456 0 0 Z " fill="#8EC8F7" transform="translate(213,318)"/>
<path d="M0 0 C5.26594344 1.85856827 7.79395768 4.60314196 11 9 C12.4180274 13.25408219 12.89758508 16.89144885 11.09375 21.12890625 C8.48313646 25.67237788 6.17298157 28.43834519 1 30 C-3.98182348 30.64202945 -7.77818207 30.56565645 -12.375 28.4375 C-16.5827264 24.53032549 -19.16432477 20.7894382 -19.5 14.9375 C-18.77938648 9.26266856 -16.60654291 6.4152878 -12.375 2.6875 C-8.28551432 -0.2181872 -4.9348306 -0.49809505 0 0 Z " fill="#8DC7F7" transform="translate(337,221)"/>
<path d="M0 0 C3.64279314 2.40593779 5.72748978 5.34256009 7.1875 9.4375 C8.03222759 15.24500217 6.61398657 19.76409672 3.1875 24.4375 C-0.2168418 27.58607519 -3.72673333 28.68750931 -8.3125 28.9375 C-12.89826667 28.68750931 -16.4081582 27.58607519 -19.8125 24.4375 C-22.45473534 20.83374114 -23.64172289 17.37677408 -24.4375 13 C-23.5597451 7.99679707 -21.28783929 4.13900019 -17.8125 0.4375 C-12.12923584 -2.45430536 -5.78004184 -2.89623602 0 0 Z " fill="#8DC7F7" transform="translate(280.8125,341.5625)"/>
<path d="M0 0 C3.8991694 2.03650886 6.35208452 4.16981011 7.90234375 8.2734375 C8.65007745 13.9604262 8.17629448 18.41895883 4.90234375 23.2734375 C0.2493353 27.47249391 -2.63066167 28.63963405 -8.78125 28.55078125 C-13.65092916 27.96773366 -16.31024239 25.14373703 -19.47265625 21.6484375 C-21.67504954 17.07423605 -21.9010894 13.26446164 -21.09765625 8.2734375 C-16.8448705 -0.38964459 -9.09547282 -3.15038724 0 0 Z " fill="#8EC8F7" transform="translate(323.09765625,142.7265625)"/>
<path d="M0 0 C3.45513239 2.43429782 5.50736249 4.92401238 6.75 8.9375 C7.07472842 13.56289987 6.37409585 16.92603431 3.9375 20.875 C-0.33439729 24.90278888 -4.0374666 25.43420049 -9.7734375 25.32421875 C-14.49419979 24.58706502 -16.84587179 21.85222029 -19.625 18.0625 C-20.99491124 13.40480178 -20.80023195 9.47271138 -18.5625 5.1875 C-13.65961046 -1.70304746 -7.76543236 -2.53869904 0 0 Z " fill="#8CC6F6" transform="translate(218.25,384.0625)"/>
<path d="M0 0 C3.18180432 1.42252201 5.16990285 3.02182949 7 6 C8.10274302 11.1662755 7.87014226 15.42085293 5.3125 20.0625 C1.95367553 22.87665023 -0.61140112 23.82273206 -4.9375 24.375 C-9.84768745 23.77375256 -12.80165507 21.47795875 -15.875 17.6875 C-17.35117243 14.16108808 -17.46618895 11.79611 -17 8 C-13.11709166 0.65020922 -8.07295074 -1.47642891 0 0 Z " fill="#8CC6F6" transform="translate(382,164)"/>
<path d="M0 0 C3.56504994 0.80784383 5.22195936 2.68632629 7.37890625 5.5390625 C7.70890625 5.8690625 8.03890625 6.1990625 8.37890625 6.5390625 C8.73103314 11.82096585 8.88524335 15.28136745 5.37890625 19.5390625 C2.3686264 21.88039128 -0.90155166 21.95726285 -4.65625 21.859375 C-8.57634014 21.22031458 -10.69364243 18.76161197 -12.99609375 15.7265625 C-13.97112338 12.31395878 -13.50591064 9.96035448 -12.62109375 6.5390625 C-9.33533648 0.70949315 -6.37696372 -0.36113952 0 0 Z " fill="#8DC7F6" transform="translate(281.62109375,400.4609375)"/>
<path d="M0 0 C3.6487329 0.745996 5.97054218 2.21739835 8.3046875 5.08203125 C9.27379073 8.66771319 8.91672381 11.83388917 7.9296875 15.39453125 C6.24894983 18.01648201 5.04460033 19.05865793 2.0625 19.95703125 C-1.52191864 20.60628444 -3.55495377 20.61860027 -6.9453125 19.14453125 C-10.21599768 16.45102581 -11.0219712 14.81579116 -11.5078125 10.58203125 C-11.40977144 7.46201876 -10.8762076 5.45440275 -9.0703125 2.89453125 C-5.68308033 0.07183778 -4.25316976 -0.34506849 0 0 Z " fill="#8DC7F7" transform="translate(236.0703125,438.60546875)"/>
<path d="M0 0 C-5.3286272 1.68194099 -10.6623641 3.34687116 -16 5 C-16.8446582 5.26184082 -17.68931641 5.52368164 -18.55957031 5.79345703 C-21.16296089 6.5973161 -23.76862453 7.39337767 -26.375 8.1875 C-27.18163086 8.43709473 -27.98826172 8.68668945 -28.81933594 8.94384766 C-43.92727955 13.51818011 -43.92727955 13.51818011 -50 12 C-49.34 8.37 -48.68 4.74 -48 1 C-46.24816406 1.02320313 -44.49632812 1.04640625 -42.69140625 1.0703125 C-30.70557236 1.17861566 -19.0231176 1.15669369 -7.16015625 -0.66015625 C-4.34300189 -0.96311352 -2.63104858 -0.94295726 0 0 Z " fill="#154DA4" transform="translate(326,447)"/>
<path d="M0 0 C3.16969644 1.45849358 5.80680654 3.23945413 8.5625 5.375 C9.32691406 5.96023437 10.09132813 6.54546875 10.87890625 7.1484375 C12.94139958 8.94884605 14.45066946 10.75272822 16 13 C12.11390189 11.24933204 8.72187742 8.81675994 5.25 6.375 C4.64800781 5.95476562 4.04601562 5.53453125 3.42578125 5.1015625 C1.94886957 4.07006863 0.47420806 3.03535421 -1 2 C-0.67 1.34 -0.34 0.68 0 0 Z " fill="#2458AA" transform="translate(384,80)"/>
<path d="M0 0 C1.49828872 3.88235819 0.43110582 6.43449288 -0.9375 10.25 C-1.31777344 11.32765625 -1.69804687 12.4053125 -2.08984375 13.515625 C-2.39019531 14.33546875 -2.69054687 15.1553125 -3 16 C-3.99 16 -4.98 16 -6 16 C-6.66 16.33 -7.32 16.66 -8 17 C-6.92200605 14.83899818 -5.83833 12.68119281 -4.74609375 10.52734375 C-4.31425781 9.67269531 -3.88242187 8.81804687 -3.4375 7.9375 C-2.78587891 6.65166016 -2.78587891 6.65166016 -2.12109375 5.33984375 C-0.90901121 2.93493008 -0.90901121 2.93493008 0 0 Z " fill="#3F6DB4" transform="translate(465,301)"/>
<path d="M0 0 C1.58272601 3.16545202 0.33086619 5.74418878 -0.4375 9.125 C-0.72496094 10.40632812 -1.01242188 11.68765625 -1.30859375 13.0078125 C-1.53675781 13.99523437 -1.76492187 14.98265625 -2 16 C-3.57421875 14.28515625 -3.57421875 14.28515625 -5 12 C-4.70703125 9.74609375 -4.70703125 9.74609375 -3.8125 7.4375 C-3.53019531 6.67308594 -3.24789062 5.90867188 -2.95703125 5.12109375 C-2 3 -2 3 0 0 Z " fill="#4974B8" transform="translate(36,157)"/>
<path d="M0 0 C1.15957207 3.47871621 0.77456651 4.34219645 -0.4375 7.6875 C-0.72496094 8.49574219 -1.01242187 9.30398438 -1.30859375 10.13671875 C-1.53675781 10.75160156 -1.76492188 11.36648438 -2 12 C-2.99 12 -3.98 12 -5 12 C-3.41037341 7.96479403 -1.71767682 3.98188718 0 0 Z " fill="#3E6CB4" transform="translate(476,248)"/>
<path d="M0 0 C2.16419412 4.32838824 2.20068706 5.49742351 1 10 C0.01 10.495 0.01 10.495 -1 11 C-0.67 7.37 -0.34 3.74 0 0 Z " fill="#4C76B9" transform="translate(466,173)"/>
<path d="M0 0 C2.37948772 0.17625835 3.70225849 0.69719773 5.37890625 2.40234375 C6.62115486 3.90649092 7.81376056 5.45129851 9 7 C5.18315774 5.44499019 2.80804268 2.96404505 0 0 Z " fill="#2F60AE" transform="translate(391,86)"/>
</svg>
